<mxfile host="app.diagrams.net" modified="2024-03-23T09:51:27.210Z" agent="Mozilla/5.0 (Windows NT 10.0; Win64; x64) AppleWebKit/537.36 (KHTML, like Gecko) Chrome/122.0.0.0 Safari/537.36" etag="aNv3Wy8Mwb0P29g7PRcQ" version="24.0.5" type="github">
  <diagram id="C5RBs43oDa-KdzZeNtuy" name="Page-1">
    <mxGraphModel dx="1122" dy="656" grid="1" gridSize="10" guides="1" tooltips="1" connect="1" arrows="1" fold="1" page="1" pageScale="1" pageWidth="827" pageHeight="1169" math="0" shadow="0">
      <root>
        <mxCell id="WIyWlLk6GJQsqaUBKTNV-0" />
        <mxCell id="WIyWlLk6GJQsqaUBKTNV-1" parent="WIyWlLk6GJQsqaUBKTNV-0" />
        <mxCell id="kSceVQpJ1TqL70_9jFX7-0" value="&lt;div&gt;add&lt;/div&gt;Начало" style="strokeWidth=2;html=1;shape=mxgraph.flowchart.terminator;whiteSpace=wrap;" vertex="1" parent="WIyWlLk6GJQsqaUBKTNV-1">
          <mxGeometry x="40" y="40" width="120" height="40" as="geometry" />
        </mxCell>
        <mxCell id="kSceVQpJ1TqL70_9jFX7-1" value="cur_node = select_by_order(list, ind)" style="shape=process;whiteSpace=wrap;html=1;backgroundOutline=1;fontSize=10;" vertex="1" parent="WIyWlLk6GJQsqaUBKTNV-1">
          <mxGeometry x="40" y="100" width="120" height="40" as="geometry" />
        </mxCell>
        <mxCell id="kSceVQpJ1TqL70_9jFX7-2" value="list-&amp;gt;first == cur_node?" style="strokeWidth=1;html=1;shape=mxgraph.flowchart.decision;whiteSpace=wrap;fontSize=10;spacingLeft=10;spacingRight=10;" vertex="1" parent="WIyWlLk6GJQsqaUBKTNV-1">
          <mxGeometry x="40" y="160" width="120" height="40" as="geometry" />
        </mxCell>
        <mxCell id="kSceVQpJ1TqL70_9jFX7-3" value="new_node-&amp;gt;next = cur_node&lt;div style=&quot;font-size: 10px;&quot;&gt;list-&amp;gt;first = new_node&lt;br style=&quot;font-size: 10px;&quot;&gt;++list-&amp;gt;length&lt;br style=&quot;font-size: 10px;&quot;&gt;&lt;/div&gt;" style="rounded=0;whiteSpace=wrap;html=1;fontSize=10;" vertex="1" parent="WIyWlLk6GJQsqaUBKTNV-1">
          <mxGeometry x="180" y="200" width="140" height="40" as="geometry" />
        </mxCell>
        <mxCell id="kSceVQpJ1TqL70_9jFX7-4" value="q = list-&gt;first" style="rounded=0;whiteSpace=wrap;html=1;" vertex="1" parent="WIyWlLk6GJQsqaUBKTNV-1">
          <mxGeometry x="40" y="260" width="120" height="20" as="geometry" />
        </mxCell>
        <mxCell id="kSceVQpJ1TqL70_9jFX7-5" value="q существует?" style="strokeWidth=1;html=1;shape=mxgraph.flowchart.decision;whiteSpace=wrap;" vertex="1" parent="WIyWlLk6GJQsqaUBKTNV-1">
          <mxGeometry x="40" y="300" width="120" height="40" as="geometry" />
        </mxCell>
        <mxCell id="kSceVQpJ1TqL70_9jFX7-6" value="q-&amp;gt;next == cur_node?" style="strokeWidth=1;html=1;shape=mxgraph.flowchart.decision;whiteSpace=wrap;fontSize=10;spacingLeft=10;spacingRight=10;" vertex="1" parent="WIyWlLk6GJQsqaUBKTNV-1">
          <mxGeometry x="180" y="340" width="120" height="40" as="geometry" />
        </mxCell>
        <mxCell id="kSceVQpJ1TqL70_9jFX7-7" value="q-&amp;gt;next = new_node&lt;div style=&quot;font-size: 10px;&quot;&gt;new_node-&amp;gt;next = cur_node&lt;br style=&quot;font-size: 10px;&quot;&gt;&lt;/div&gt;&lt;div style=&quot;font-size: 10px;&quot;&gt;++list-&amp;gt;length&lt;br style=&quot;font-size: 10px;&quot;&gt;&lt;/div&gt;&lt;div style=&quot;font-size: 10px;&quot;&gt;q = NULL&lt;br style=&quot;font-size: 10px;&quot;&gt;&lt;/div&gt;" style="rounded=0;whiteSpace=wrap;html=1;fontSize=10;" vertex="1" parent="WIyWlLk6GJQsqaUBKTNV-1">
          <mxGeometry x="320" y="380" width="140" height="50" as="geometry" />
        </mxCell>
        <mxCell id="kSceVQpJ1TqL70_9jFX7-8" value="q = q-&amp;gt;next" style="rounded=0;whiteSpace=wrap;html=1;" vertex="1" parent="WIyWlLk6GJQsqaUBKTNV-1">
          <mxGeometry x="180" y="400" width="120" height="20" as="geometry" />
        </mxCell>
        <mxCell id="kSceVQpJ1TqL70_9jFX7-9" value="Конец" style="strokeWidth=2;html=1;shape=mxgraph.flowchart.terminator;whiteSpace=wrap;" vertex="1" parent="WIyWlLk6GJQsqaUBKTNV-1">
          <mxGeometry x="40" y="470" width="120" height="40" as="geometry" />
        </mxCell>
        <mxCell id="kSceVQpJ1TqL70_9jFX7-10" value="" style="endArrow=none;html=1;rounded=0;entryX=0.5;entryY=1;entryDx=0;entryDy=0;entryPerimeter=0;exitX=0.5;exitY=0;exitDx=0;exitDy=0;" edge="1" parent="WIyWlLk6GJQsqaUBKTNV-1" source="kSceVQpJ1TqL70_9jFX7-1" target="kSceVQpJ1TqL70_9jFX7-0">
          <mxGeometry width="50" height="50" relative="1" as="geometry">
            <mxPoint x="220" y="120" as="sourcePoint" />
            <mxPoint x="220" y="80" as="targetPoint" />
          </mxGeometry>
        </mxCell>
        <mxCell id="kSceVQpJ1TqL70_9jFX7-11" value="" style="endArrow=none;html=1;rounded=0;entryX=0.5;entryY=1;entryDx=0;entryDy=0;exitX=0.5;exitY=0;exitDx=0;exitDy=0;exitPerimeter=0;" edge="1" parent="WIyWlLk6GJQsqaUBKTNV-1" source="kSceVQpJ1TqL70_9jFX7-2" target="kSceVQpJ1TqL70_9jFX7-1">
          <mxGeometry width="50" height="50" relative="1" as="geometry">
            <mxPoint x="150" y="250" as="sourcePoint" />
            <mxPoint x="150" y="210" as="targetPoint" />
          </mxGeometry>
        </mxCell>
        <mxCell id="kSceVQpJ1TqL70_9jFX7-12" value="" style="endArrow=none;html=1;rounded=0;entryX=1;entryY=0.5;entryDx=0;entryDy=0;entryPerimeter=0;exitX=0.5;exitY=0;exitDx=0;exitDy=0;" edge="1" parent="WIyWlLk6GJQsqaUBKTNV-1" source="kSceVQpJ1TqL70_9jFX7-3" target="kSceVQpJ1TqL70_9jFX7-2">
          <mxGeometry width="50" height="50" relative="1" as="geometry">
            <mxPoint x="140" y="270" as="sourcePoint" />
            <mxPoint x="140" y="230" as="targetPoint" />
            <Array as="points">
              <mxPoint x="250" y="180" />
            </Array>
          </mxGeometry>
        </mxCell>
        <mxCell id="kSceVQpJ1TqL70_9jFX7-13" value="" style="endArrow=none;html=1;rounded=0;entryX=0.5;entryY=1;entryDx=0;entryDy=0;entryPerimeter=0;exitX=0.5;exitY=0;exitDx=0;exitDy=0;" edge="1" parent="WIyWlLk6GJQsqaUBKTNV-1" source="kSceVQpJ1TqL70_9jFX7-4" target="kSceVQpJ1TqL70_9jFX7-2">
          <mxGeometry width="50" height="50" relative="1" as="geometry">
            <mxPoint x="140" y="260" as="sourcePoint" />
            <mxPoint x="140" y="220" as="targetPoint" />
          </mxGeometry>
        </mxCell>
        <mxCell id="kSceVQpJ1TqL70_9jFX7-14" value="" style="endArrow=none;html=1;rounded=0;entryX=0.5;entryY=1;entryDx=0;entryDy=0;entryPerimeter=0;exitX=0.5;exitY=0;exitDx=0;exitDy=0;exitPerimeter=0;" edge="1" parent="WIyWlLk6GJQsqaUBKTNV-1" source="kSceVQpJ1TqL70_9jFX7-9" target="kSceVQpJ1TqL70_9jFX7-5">
          <mxGeometry width="50" height="50" relative="1" as="geometry">
            <mxPoint x="70" y="440" as="sourcePoint" />
            <mxPoint x="70" y="400" as="targetPoint" />
          </mxGeometry>
        </mxCell>
        <mxCell id="kSceVQpJ1TqL70_9jFX7-15" value="" style="endArrow=none;html=1;rounded=0;entryX=0.5;entryY=1;entryDx=0;entryDy=0;exitX=0.5;exitY=0;exitDx=0;exitDy=0;exitPerimeter=0;" edge="1" parent="WIyWlLk6GJQsqaUBKTNV-1" source="kSceVQpJ1TqL70_9jFX7-5" target="kSceVQpJ1TqL70_9jFX7-4">
          <mxGeometry width="50" height="50" relative="1" as="geometry">
            <mxPoint x="250" y="330" as="sourcePoint" />
            <mxPoint x="250" y="290" as="targetPoint" />
          </mxGeometry>
        </mxCell>
        <mxCell id="kSceVQpJ1TqL70_9jFX7-16" value="" style="endArrow=none;html=1;rounded=0;entryX=1;entryY=0.5;entryDx=0;entryDy=0;entryPerimeter=0;exitX=0.5;exitY=0;exitDx=0;exitDy=0;exitPerimeter=0;" edge="1" parent="WIyWlLk6GJQsqaUBKTNV-1" source="kSceVQpJ1TqL70_9jFX7-6" target="kSceVQpJ1TqL70_9jFX7-5">
          <mxGeometry width="50" height="50" relative="1" as="geometry">
            <mxPoint x="300" y="360" as="sourcePoint" />
            <mxPoint x="300" y="320" as="targetPoint" />
            <Array as="points">
              <mxPoint x="240" y="320" />
            </Array>
          </mxGeometry>
        </mxCell>
        <mxCell id="kSceVQpJ1TqL70_9jFX7-17" value="" style="endArrow=none;html=1;rounded=0;entryX=0.5;entryY=1;entryDx=0;entryDy=0;entryPerimeter=0;exitX=0.5;exitY=0;exitDx=0;exitDy=0;" edge="1" parent="WIyWlLk6GJQsqaUBKTNV-1" source="kSceVQpJ1TqL70_9jFX7-8" target="kSceVQpJ1TqL70_9jFX7-6">
          <mxGeometry width="50" height="50" relative="1" as="geometry">
            <mxPoint x="210" y="510" as="sourcePoint" />
            <mxPoint x="210" y="470" as="targetPoint" />
          </mxGeometry>
        </mxCell>
        <mxCell id="kSceVQpJ1TqL70_9jFX7-18" value="" style="endArrow=none;html=1;rounded=0;entryX=1;entryY=0.5;entryDx=0;entryDy=0;entryPerimeter=0;exitX=0.5;exitY=0;exitDx=0;exitDy=0;" edge="1" parent="WIyWlLk6GJQsqaUBKTNV-1" source="kSceVQpJ1TqL70_9jFX7-7" target="kSceVQpJ1TqL70_9jFX7-6">
          <mxGeometry width="50" height="50" relative="1" as="geometry">
            <mxPoint x="420" y="360" as="sourcePoint" />
            <mxPoint x="420" y="320" as="targetPoint" />
            <Array as="points">
              <mxPoint x="390" y="360" />
            </Array>
          </mxGeometry>
        </mxCell>
        <mxCell id="kSceVQpJ1TqL70_9jFX7-19" value="" style="endArrow=none;html=1;rounded=0;entryX=0.5;entryY=1;entryDx=0;entryDy=0;endFill=0;startArrow=classic;startFill=1;" edge="1" parent="WIyWlLk6GJQsqaUBKTNV-1" target="kSceVQpJ1TqL70_9jFX7-8">
          <mxGeometry width="50" height="50" relative="1" as="geometry">
            <mxPoint x="100" y="290" as="sourcePoint" />
            <mxPoint x="270" y="490" as="targetPoint" />
            <Array as="points">
              <mxPoint x="470" y="290" />
              <mxPoint x="470" y="450" />
              <mxPoint x="240" y="450" />
            </Array>
          </mxGeometry>
        </mxCell>
        <mxCell id="kSceVQpJ1TqL70_9jFX7-20" value="" style="endArrow=none;html=1;rounded=0;entryX=0.5;entryY=1;entryDx=0;entryDy=0;" edge="1" parent="WIyWlLk6GJQsqaUBKTNV-1" target="kSceVQpJ1TqL70_9jFX7-7">
          <mxGeometry width="50" height="50" relative="1" as="geometry">
            <mxPoint x="390" y="450" as="sourcePoint" />
            <mxPoint x="380" y="520" as="targetPoint" />
          </mxGeometry>
        </mxCell>
        <mxCell id="kSceVQpJ1TqL70_9jFX7-21" value="" style="endArrow=none;html=1;rounded=0;entryX=0.5;entryY=1;entryDx=0;entryDy=0;" edge="1" parent="WIyWlLk6GJQsqaUBKTNV-1" target="kSceVQpJ1TqL70_9jFX7-3">
          <mxGeometry width="50" height="50" relative="1" as="geometry">
            <mxPoint x="100" y="460" as="sourcePoint" />
            <mxPoint x="460" y="210" as="targetPoint" />
            <Array as="points">
              <mxPoint x="480" y="460" />
              <mxPoint x="480" y="260" />
              <mxPoint x="250" y="260" />
            </Array>
          </mxGeometry>
        </mxCell>
        <mxCell id="kSceVQpJ1TqL70_9jFX7-22" value="Да" style="text;html=1;strokeColor=none;fillColor=none;align=center;verticalAlign=middle;whiteSpace=wrap;rounded=0;" vertex="1" parent="WIyWlLk6GJQsqaUBKTNV-1">
          <mxGeometry x="150" y="295" width="60" height="30" as="geometry" />
        </mxCell>
        <mxCell id="kSceVQpJ1TqL70_9jFX7-23" value="Да" style="text;html=1;strokeColor=none;fillColor=none;align=center;verticalAlign=middle;whiteSpace=wrap;rounded=0;" vertex="1" parent="WIyWlLk6GJQsqaUBKTNV-1">
          <mxGeometry x="150" y="155" width="60" height="30" as="geometry" />
        </mxCell>
        <mxCell id="kSceVQpJ1TqL70_9jFX7-24" value="Да" style="text;html=1;strokeColor=none;fillColor=none;align=center;verticalAlign=middle;whiteSpace=wrap;rounded=0;" vertex="1" parent="WIyWlLk6GJQsqaUBKTNV-1">
          <mxGeometry x="290" y="335" width="60" height="30" as="geometry" />
        </mxCell>
        <mxCell id="kSceVQpJ1TqL70_9jFX7-25" value="&lt;div&gt;make_list&lt;br&gt;&lt;/div&gt;Начало" style="strokeWidth=2;html=1;shape=mxgraph.flowchart.terminator;whiteSpace=wrap;" vertex="1" parent="WIyWlLk6GJQsqaUBKTNV-1">
          <mxGeometry x="520" y="40" width="120" height="40" as="geometry" />
        </mxCell>
        <mxCell id="kSceVQpJ1TqL70_9jFX7-26" value="ph-&amp;gt;length = 0&lt;div&gt;ph-&amp;gt;first = NULL&lt;br&gt;&lt;/div&gt;" style="rounded=0;whiteSpace=wrap;html=1;" vertex="1" parent="WIyWlLk6GJQsqaUBKTNV-1">
          <mxGeometry x="520" y="100" width="120" height="40" as="geometry" />
        </mxCell>
        <mxCell id="kSceVQpJ1TqL70_9jFX7-27" value="Вернуть ph" style="shape=parallelogram;perimeter=parallelogramPerimeter;whiteSpace=wrap;html=1;fixedSize=1;" vertex="1" parent="WIyWlLk6GJQsqaUBKTNV-1">
          <mxGeometry x="520" y="160" width="120" height="40" as="geometry" />
        </mxCell>
        <mxCell id="kSceVQpJ1TqL70_9jFX7-28" value="Конец" style="strokeWidth=2;html=1;shape=mxgraph.flowchart.terminator;whiteSpace=wrap;" vertex="1" parent="WIyWlLk6GJQsqaUBKTNV-1">
          <mxGeometry x="520" y="220" width="120" height="40" as="geometry" />
        </mxCell>
        <mxCell id="kSceVQpJ1TqL70_9jFX7-29" value="" style="endArrow=none;html=1;rounded=0;entryX=0.5;entryY=1;entryDx=0;entryDy=0;entryPerimeter=0;exitX=0.5;exitY=0;exitDx=0;exitDy=0;" edge="1" parent="WIyWlLk6GJQsqaUBKTNV-1" source="kSceVQpJ1TqL70_9jFX7-26" target="kSceVQpJ1TqL70_9jFX7-25">
          <mxGeometry width="50" height="50" relative="1" as="geometry">
            <mxPoint x="710" y="190" as="sourcePoint" />
            <mxPoint x="710" y="150" as="targetPoint" />
          </mxGeometry>
        </mxCell>
        <mxCell id="kSceVQpJ1TqL70_9jFX7-30" value="" style="endArrow=none;html=1;rounded=0;entryX=0.5;entryY=1;entryDx=0;entryDy=0;exitX=0.5;exitY=0;exitDx=0;exitDy=0;" edge="1" parent="WIyWlLk6GJQsqaUBKTNV-1" source="kSceVQpJ1TqL70_9jFX7-27" target="kSceVQpJ1TqL70_9jFX7-26">
          <mxGeometry width="50" height="50" relative="1" as="geometry">
            <mxPoint x="680" y="200" as="sourcePoint" />
            <mxPoint x="680" y="160" as="targetPoint" />
          </mxGeometry>
        </mxCell>
        <mxCell id="kSceVQpJ1TqL70_9jFX7-31" value="" style="endArrow=none;html=1;rounded=0;entryX=0.5;entryY=1;entryDx=0;entryDy=0;exitX=0.5;exitY=0;exitDx=0;exitDy=0;exitPerimeter=0;" edge="1" parent="WIyWlLk6GJQsqaUBKTNV-1" source="kSceVQpJ1TqL70_9jFX7-28" target="kSceVQpJ1TqL70_9jFX7-27">
          <mxGeometry width="50" height="50" relative="1" as="geometry">
            <mxPoint x="670" y="240" as="sourcePoint" />
            <mxPoint x="670" y="200" as="targetPoint" />
          </mxGeometry>
        </mxCell>
        <mxCell id="kSceVQpJ1TqL70_9jFX7-32" value="&lt;div&gt;create_node&lt;br&gt;&lt;/div&gt;Начало" style="strokeWidth=2;html=1;shape=mxgraph.flowchart.terminator;whiteSpace=wrap;" vertex="1" parent="WIyWlLk6GJQsqaUBKTNV-1">
          <mxGeometry x="680" y="40" width="120" height="40" as="geometry" />
        </mxCell>
        <mxCell id="kSceVQpJ1TqL70_9jFX7-33" value="&lt;font style=&quot;font-size: 10px;&quot;&gt;copytext = text&lt;/font&gt;&lt;div style=&quot;font-size: 10px;&quot;&gt;&lt;font style=&quot;font-size: 10px;&quot;&gt;new_node-&amp;gt;next = NULL&lt;/font&gt;&lt;br style=&quot;font-size: 10px;&quot;&gt;&lt;/div&gt;" style="rounded=0;whiteSpace=wrap;html=1;fontSize=10;" vertex="1" parent="WIyWlLk6GJQsqaUBKTNV-1">
          <mxGeometry x="680" y="100" width="120" height="30" as="geometry" />
        </mxCell>
        <mxCell id="kSceVQpJ1TqL70_9jFX7-34" value="new_node-&amp;gt;data = fill_struct(copytext)" style="shape=process;whiteSpace=wrap;html=1;backgroundOutline=1;fontSize=10;" vertex="1" parent="WIyWlLk6GJQsqaUBKTNV-1">
          <mxGeometry x="680" y="150" width="120" height="40" as="geometry" />
        </mxCell>
        <mxCell id="kSceVQpJ1TqL70_9jFX7-35" value="Вернуть&amp;nbsp;new_node" style="shape=parallelogram;perimeter=parallelogramPerimeter;whiteSpace=wrap;html=1;fixedSize=1;spacingLeft=50;spacingRight=50;fontSize=11;" vertex="1" parent="WIyWlLk6GJQsqaUBKTNV-1">
          <mxGeometry x="680" y="210" width="120" height="40" as="geometry" />
        </mxCell>
        <mxCell id="kSceVQpJ1TqL70_9jFX7-36" value="Конец" style="strokeWidth=2;html=1;shape=mxgraph.flowchart.terminator;whiteSpace=wrap;" vertex="1" parent="WIyWlLk6GJQsqaUBKTNV-1">
          <mxGeometry x="680" y="270" width="120" height="40" as="geometry" />
        </mxCell>
        <mxCell id="kSceVQpJ1TqL70_9jFX7-37" value="" style="endArrow=none;html=1;rounded=0;entryX=0.5;entryY=1;entryDx=0;entryDy=0;entryPerimeter=0;exitX=0.5;exitY=0;exitDx=0;exitDy=0;" edge="1" parent="WIyWlLk6GJQsqaUBKTNV-1" source="kSceVQpJ1TqL70_9jFX7-33" target="kSceVQpJ1TqL70_9jFX7-32">
          <mxGeometry width="50" height="50" relative="1" as="geometry">
            <mxPoint x="660" y="130" as="sourcePoint" />
            <mxPoint x="660" y="90" as="targetPoint" />
          </mxGeometry>
        </mxCell>
        <mxCell id="kSceVQpJ1TqL70_9jFX7-38" value="" style="endArrow=none;html=1;rounded=0;entryX=0.5;entryY=1;entryDx=0;entryDy=0;exitX=0.5;exitY=0;exitDx=0;exitDy=0;" edge="1" parent="WIyWlLk6GJQsqaUBKTNV-1" source="kSceVQpJ1TqL70_9jFX7-34" target="kSceVQpJ1TqL70_9jFX7-33">
          <mxGeometry width="50" height="50" relative="1" as="geometry">
            <mxPoint x="660" y="190" as="sourcePoint" />
            <mxPoint x="660" y="150" as="targetPoint" />
          </mxGeometry>
        </mxCell>
        <mxCell id="kSceVQpJ1TqL70_9jFX7-39" value="" style="endArrow=none;html=1;rounded=0;entryX=0.5;entryY=1;entryDx=0;entryDy=0;exitX=0.5;exitY=0;exitDx=0;exitDy=0;" edge="1" parent="WIyWlLk6GJQsqaUBKTNV-1" source="kSceVQpJ1TqL70_9jFX7-35" target="kSceVQpJ1TqL70_9jFX7-34">
          <mxGeometry width="50" height="50" relative="1" as="geometry">
            <mxPoint x="660" y="280" as="sourcePoint" />
            <mxPoint x="660" y="240" as="targetPoint" />
          </mxGeometry>
        </mxCell>
        <mxCell id="kSceVQpJ1TqL70_9jFX7-40" value="" style="endArrow=none;html=1;rounded=0;entryX=0.5;entryY=1;entryDx=0;entryDy=0;exitX=0.5;exitY=0;exitDx=0;exitDy=0;exitPerimeter=0;" edge="1" parent="WIyWlLk6GJQsqaUBKTNV-1" source="kSceVQpJ1TqL70_9jFX7-36" target="kSceVQpJ1TqL70_9jFX7-35">
          <mxGeometry width="50" height="50" relative="1" as="geometry">
            <mxPoint x="670" y="410" as="sourcePoint" />
            <mxPoint x="670" y="370" as="targetPoint" />
          </mxGeometry>
        </mxCell>
        <mxCell id="kSceVQpJ1TqL70_9jFX7-41" value="&lt;div&gt;select_by_order&lt;br&gt;&lt;/div&gt;Начало" style="strokeWidth=2;html=1;shape=mxgraph.flowchart.terminator;whiteSpace=wrap;" vertex="1" parent="WIyWlLk6GJQsqaUBKTNV-1">
          <mxGeometry x="40" y="550" width="120" height="40" as="geometry" />
        </mxCell>
        <mxCell id="kSceVQpJ1TqL70_9jFX7-42" value="q = list-&amp;gt;first&lt;div&gt;n = list-&amp;gt;length&lt;br&gt;&lt;/div&gt;" style="rounded=0;whiteSpace=wrap;html=1;" vertex="1" parent="WIyWlLk6GJQsqaUBKTNV-1">
          <mxGeometry x="40" y="610" width="120" height="30" as="geometry" />
        </mxCell>
        <mxCell id="kSceVQpJ1TqL70_9jFX7-43" value="ind &amp;lt; 0 || ind &amp;gt; n?" style="strokeWidth=1;html=1;shape=mxgraph.flowchart.decision;whiteSpace=wrap;fontSize=11;" vertex="1" parent="WIyWlLk6GJQsqaUBKTNV-1">
          <mxGeometry x="40" y="660" width="120" height="40" as="geometry" />
        </mxCell>
        <mxCell id="kSceVQpJ1TqL70_9jFX7-44" value="ind = n - 1" style="rounded=0;whiteSpace=wrap;html=1;" vertex="1" parent="WIyWlLk6GJQsqaUBKTNV-1">
          <mxGeometry x="180" y="700" width="120" height="20" as="geometry" />
        </mxCell>
        <mxCell id="kSceVQpJ1TqL70_9jFX7-45" value="i = 1" style="rounded=0;whiteSpace=wrap;html=1;" vertex="1" parent="WIyWlLk6GJQsqaUBKTNV-1">
          <mxGeometry x="40" y="740" width="120" height="20" as="geometry" />
        </mxCell>
        <mxCell id="kSceVQpJ1TqL70_9jFX7-46" value="i &amp;lt; n - ind?" style="strokeWidth=1;html=1;shape=mxgraph.flowchart.decision;whiteSpace=wrap;" vertex="1" parent="WIyWlLk6GJQsqaUBKTNV-1">
          <mxGeometry x="40" y="780" width="120" height="40" as="geometry" />
        </mxCell>
        <mxCell id="kSceVQpJ1TqL70_9jFX7-47" value="q = q-&amp;gt;next&lt;div&gt;i = i + 1&lt;/div&gt;" style="rounded=0;whiteSpace=wrap;html=1;" vertex="1" parent="WIyWlLk6GJQsqaUBKTNV-1">
          <mxGeometry x="180" y="820" width="120" height="40" as="geometry" />
        </mxCell>
        <mxCell id="kSceVQpJ1TqL70_9jFX7-48" value="Вернуть q" style="shape=parallelogram;perimeter=parallelogramPerimeter;whiteSpace=wrap;html=1;fixedSize=1;" vertex="1" parent="WIyWlLk6GJQsqaUBKTNV-1">
          <mxGeometry x="40" y="880" width="120" height="40" as="geometry" />
        </mxCell>
        <mxCell id="kSceVQpJ1TqL70_9jFX7-49" value="Конец" style="strokeWidth=2;html=1;shape=mxgraph.flowchart.terminator;whiteSpace=wrap;" vertex="1" parent="WIyWlLk6GJQsqaUBKTNV-1">
          <mxGeometry x="40" y="940" width="120" height="40" as="geometry" />
        </mxCell>
        <mxCell id="kSceVQpJ1TqL70_9jFX7-50" value="" style="endArrow=none;html=1;rounded=0;entryX=0.5;entryY=1;entryDx=0;entryDy=0;entryPerimeter=0;exitX=0.5;exitY=0;exitDx=0;exitDy=0;" edge="1" parent="WIyWlLk6GJQsqaUBKTNV-1" source="kSceVQpJ1TqL70_9jFX7-42" target="kSceVQpJ1TqL70_9jFX7-41">
          <mxGeometry width="50" height="50" relative="1" as="geometry">
            <mxPoint x="400" y="730" as="sourcePoint" />
            <mxPoint x="400" y="690" as="targetPoint" />
          </mxGeometry>
        </mxCell>
        <mxCell id="kSceVQpJ1TqL70_9jFX7-51" value="" style="endArrow=none;html=1;rounded=0;entryX=0.5;entryY=1;entryDx=0;entryDy=0;exitX=0.5;exitY=0;exitDx=0;exitDy=0;exitPerimeter=0;" edge="1" parent="WIyWlLk6GJQsqaUBKTNV-1" source="kSceVQpJ1TqL70_9jFX7-43" target="kSceVQpJ1TqL70_9jFX7-42">
          <mxGeometry width="50" height="50" relative="1" as="geometry">
            <mxPoint x="240" y="700" as="sourcePoint" />
            <mxPoint x="240" y="660" as="targetPoint" />
          </mxGeometry>
        </mxCell>
        <mxCell id="kSceVQpJ1TqL70_9jFX7-52" value="" style="endArrow=none;html=1;rounded=0;entryX=1;entryY=0.5;entryDx=0;entryDy=0;entryPerimeter=0;exitX=0.5;exitY=0;exitDx=0;exitDy=0;" edge="1" parent="WIyWlLk6GJQsqaUBKTNV-1" source="kSceVQpJ1TqL70_9jFX7-44" target="kSceVQpJ1TqL70_9jFX7-43">
          <mxGeometry width="50" height="50" relative="1" as="geometry">
            <mxPoint x="190" y="810" as="sourcePoint" />
            <mxPoint x="190" y="770" as="targetPoint" />
            <Array as="points">
              <mxPoint x="240" y="680" />
            </Array>
          </mxGeometry>
        </mxCell>
        <mxCell id="kSceVQpJ1TqL70_9jFX7-53" value="" style="endArrow=none;html=1;rounded=0;entryX=0.5;entryY=1;entryDx=0;entryDy=0;entryPerimeter=0;exitX=0.5;exitY=0;exitDx=0;exitDy=0;" edge="1" parent="WIyWlLk6GJQsqaUBKTNV-1" source="kSceVQpJ1TqL70_9jFX7-45" target="kSceVQpJ1TqL70_9jFX7-43">
          <mxGeometry width="50" height="50" relative="1" as="geometry">
            <mxPoint x="220" y="810" as="sourcePoint" />
            <mxPoint x="220" y="770" as="targetPoint" />
          </mxGeometry>
        </mxCell>
        <mxCell id="kSceVQpJ1TqL70_9jFX7-54" value="" style="endArrow=none;html=1;rounded=0;entryX=0.5;entryY=1;entryDx=0;entryDy=0;" edge="1" parent="WIyWlLk6GJQsqaUBKTNV-1" target="kSceVQpJ1TqL70_9jFX7-44">
          <mxGeometry width="50" height="50" relative="1" as="geometry">
            <mxPoint x="100" y="730" as="sourcePoint" />
            <mxPoint x="190" y="770" as="targetPoint" />
            <Array as="points">
              <mxPoint x="240" y="730" />
            </Array>
          </mxGeometry>
        </mxCell>
        <mxCell id="kSceVQpJ1TqL70_9jFX7-55" value="" style="endArrow=none;html=1;rounded=0;entryX=0.5;entryY=1;entryDx=0;entryDy=0;exitX=0.5;exitY=0;exitDx=0;exitDy=0;exitPerimeter=0;" edge="1" parent="WIyWlLk6GJQsqaUBKTNV-1" source="kSceVQpJ1TqL70_9jFX7-46" target="kSceVQpJ1TqL70_9jFX7-45">
          <mxGeometry width="50" height="50" relative="1" as="geometry">
            <mxPoint x="190" y="820" as="sourcePoint" />
            <mxPoint x="190" y="780" as="targetPoint" />
          </mxGeometry>
        </mxCell>
        <mxCell id="kSceVQpJ1TqL70_9jFX7-56" value="" style="endArrow=none;html=1;rounded=0;exitX=0.5;exitY=0;exitDx=0;exitDy=0;entryX=1;entryY=0.5;entryDx=0;entryDy=0;entryPerimeter=0;" edge="1" parent="WIyWlLk6GJQsqaUBKTNV-1" source="kSceVQpJ1TqL70_9jFX7-47" target="kSceVQpJ1TqL70_9jFX7-46">
          <mxGeometry width="50" height="50" relative="1" as="geometry">
            <mxPoint x="220" y="810" as="sourcePoint" />
            <mxPoint x="240" y="780" as="targetPoint" />
            <Array as="points">
              <mxPoint x="240" y="800" />
            </Array>
          </mxGeometry>
        </mxCell>
        <mxCell id="kSceVQpJ1TqL70_9jFX7-58" value="" style="endArrow=none;html=1;rounded=0;entryX=0.5;entryY=1;entryDx=0;entryDy=0;entryPerimeter=0;exitX=0.5;exitY=0;exitDx=0;exitDy=0;" edge="1" parent="WIyWlLk6GJQsqaUBKTNV-1" source="kSceVQpJ1TqL70_9jFX7-48" target="kSceVQpJ1TqL70_9jFX7-46">
          <mxGeometry width="50" height="50" relative="1" as="geometry">
            <mxPoint x="230" y="920" as="sourcePoint" />
            <mxPoint x="230" y="880" as="targetPoint" />
          </mxGeometry>
        </mxCell>
        <mxCell id="kSceVQpJ1TqL70_9jFX7-59" value="" style="endArrow=none;html=1;rounded=0;entryX=0.5;entryY=1;entryDx=0;entryDy=0;exitX=0.5;exitY=0;exitDx=0;exitDy=0;exitPerimeter=0;" edge="1" parent="WIyWlLk6GJQsqaUBKTNV-1" source="kSceVQpJ1TqL70_9jFX7-49" target="kSceVQpJ1TqL70_9jFX7-48">
          <mxGeometry width="50" height="50" relative="1" as="geometry">
            <mxPoint x="210" y="980" as="sourcePoint" />
            <mxPoint x="210" y="940" as="targetPoint" />
          </mxGeometry>
        </mxCell>
        <mxCell id="kSceVQpJ1TqL70_9jFX7-60" value="" style="endArrow=none;html=1;rounded=0;entryX=0.5;entryY=1;entryDx=0;entryDy=0;startArrow=classic;startFill=1;" edge="1" parent="WIyWlLk6GJQsqaUBKTNV-1" target="kSceVQpJ1TqL70_9jFX7-47">
          <mxGeometry width="50" height="50" relative="1" as="geometry">
            <mxPoint x="100" y="770" as="sourcePoint" />
            <mxPoint x="260" y="900" as="targetPoint" />
            <Array as="points">
              <mxPoint x="320" y="770" />
              <mxPoint x="320" y="880" />
              <mxPoint x="240" y="880" />
            </Array>
          </mxGeometry>
        </mxCell>
        <mxCell id="kSceVQpJ1TqL70_9jFX7-61" value="Да" style="text;html=1;strokeColor=none;fillColor=none;align=center;verticalAlign=middle;whiteSpace=wrap;rounded=0;" vertex="1" parent="WIyWlLk6GJQsqaUBKTNV-1">
          <mxGeometry x="150" y="775" width="60" height="30" as="geometry" />
        </mxCell>
        <mxCell id="kSceVQpJ1TqL70_9jFX7-62" value="Да" style="text;html=1;strokeColor=none;fillColor=none;align=center;verticalAlign=middle;whiteSpace=wrap;rounded=0;" vertex="1" parent="WIyWlLk6GJQsqaUBKTNV-1">
          <mxGeometry x="150" y="655" width="60" height="30" as="geometry" />
        </mxCell>
        <mxCell id="kSceVQpJ1TqL70_9jFX7-63" value="" style="endArrow=none;dashed=1;html=1;rounded=0;" edge="1" parent="WIyWlLk6GJQsqaUBKTNV-1">
          <mxGeometry width="50" height="50" relative="1" as="geometry">
            <mxPoint x="30" y="530" as="sourcePoint" />
            <mxPoint x="810" y="530" as="targetPoint" />
          </mxGeometry>
        </mxCell>
        <mxCell id="kSceVQpJ1TqL70_9jFX7-64" value="" style="endArrow=none;dashed=1;html=1;rounded=0;" edge="1" parent="WIyWlLk6GJQsqaUBKTNV-1">
          <mxGeometry width="50" height="50" relative="1" as="geometry">
            <mxPoint x="500" y="531.1764705882352" as="sourcePoint" />
            <mxPoint x="500" y="30" as="targetPoint" />
          </mxGeometry>
        </mxCell>
        <mxCell id="kSceVQpJ1TqL70_9jFX7-65" value="" style="endArrow=none;dashed=1;html=1;rounded=0;" edge="1" parent="WIyWlLk6GJQsqaUBKTNV-1">
          <mxGeometry width="50" height="50" relative="1" as="geometry">
            <mxPoint x="660" y="530" as="sourcePoint" />
            <mxPoint x="660" y="30" as="targetPoint" />
          </mxGeometry>
        </mxCell>
      </root>
    </mxGraphModel>
  </diagram>
</mxfile>
